<svg xmlns="http://www.w3.org/2000/svg" width="1200" height="1200" viewBox="0 0 1200 1200">
  <rect width="1200" height="1200" fill="#3d4a2a"/>
  <g fill="#5a6b3a">
    <path d="M0 100Q120 80 180 140Q240 200 160 260Q80 320 40 220Q0 160 0 100Z"/>
    <path d="M400 60Q520 40 580 100Q640 180 560 240Q480 280 440 200Q400 140 400 60Z"/>
    <path d="M800 120Q920 100 980 160Q1040 240 960 300Q880 340 840 240Q800 180 800 120Z"/>
    <path d="M200 400Q320 380 380 460Q420 540 340 580Q260 600 200 520Z"/>
    <path d="M600 440Q720 420 780 500Q820 580 740 620Q660 640 600 560Z"/>
    <path d="M1000 480Q1120 460 1180 540Q1180 620 1080 660Q1000 640 980 560Z"/>
    <path d="M40 720Q160 700 220 780Q260 860 180 900Q100 920 40 840Z"/>
    <path d="M440 760Q560 740 620 820Q660 900 580 940Q500 960 440 880Z"/>
    <path d="M820 800Q940 780 1000 860Q1040 940 960 980Q880 1000 820 920Z"/>
    <path d="M120 1040Q240 1020 300 1100L320 1200L80 1200Z"/>
    <path d="M620 1080Q740 1060 800 1140L820 1200L560 1200Z"/>
  </g>
  <g fill="#7a8a4a">
    <path d="M260 200Q320 180 360 220Q400 260 360 300Q320 320 280 280Z"/>
    <path d="M660 240Q720 220 760 260Q800 300 760 340Q720 360 680 320Z"/>
    <path d="M100 540Q160 520 200 560Q240 600 200 640Q160 660 120 620Z"/>
    <path d="M500 600Q560 580 600 620Q640 660 600 700Q560 720 520 680Z"/>
    <path d="M900 660Q960 640 1000 680Q1040 720 1000 760Q960 780 920 740Z"/>
    <path d="M340 920Q400 900 440 940Q480 980 440 1020Q400 1040 360 1000Z"/>
    <path d="M740 960Q800 940 840 980Q880 1020 840 1060Q800 1080 760 1040Z"/>
  </g>
  <g fill="#2a3520">
    <path d="M180 280Q220 260 250 290Q270 320 240 340Q200 350 180 320Z"/>
    <path d="M540 320Q580 300 610 330Q630 360 600 380Q560 390 540 360Z"/>
    <path d="M900 240Q940 220 970 250Q990 280 960 300Q920 310 900 280Z"/>
    <path d="M300 660Q340 640 370 670Q390 700 360 720Q320 730 300 700Z"/>
    <path d="M700 720Q740 700 770 730Q790 760 760 780Q720 790 700 760Z"/>
    <path d="M1040 760Q1080 740 1110 770Q1130 800 1100 820Q1060 830 1040 800Z"/>
    <path d="M180 980Q220 960 250 990Q270 1020 240 1040Q200 1050 180 1020Z"/>
    <path d="M580 1020Q620 1000 650 1030Q670 1060 640 1080Q600 1090 580 1060Z"/>
    <path d="M880 1080Q920 1060 950 1090Q970 1120 940 1140Q900 1150 880 1120Z"/>
  </g>
  <rect width="1200" height="1200" fill="none" stroke="#1a2010" stroke-width="6"/>
</svg>
