<svg xmlns="http://www.w3.org/2000/svg" width="1200" height="1200" viewBox="0 0 1200 1200">
  <defs>
    <radialGradient id="sky" cx="50%" cy="35%" r="65%">
      <stop offset="0%" stop-color="#ffd166"/>
      <stop offset="55%" stop-color="#ef476f"/>
      <stop offset="100%" stop-color="#073b4c"/>
    </radialGradient>
    <linearGradient id="mountain" x1="0" y1="0" x2="0" y2="1">
      <stop offset="0%" stop-color="#1d3557"/>
      <stop offset="100%" stop-color="#0a1a2a"/>
    </linearGradient>
    <linearGradient id="sand" x1="0" y1="0" x2="0" y2="1">
      <stop offset="0%" stop-color="#f4a261"/>
      <stop offset="100%" stop-color="#e76f51"/>
    </linearGradient>
  </defs>
  <rect width="1200" height="1200" fill="none"/>
  <rect x="180" y="240" width="840" height="720" fill="url(#sky)"/>
  <circle cx="780" cy="430" r="92" fill="#ffe66d" opacity="0.95"/>
  <path d="M180 720L370 540L500 660L640 480L820 700L1020 580L1020 960L180 960Z" fill="url(#mountain)"/>
  <path d="M180 820L300 770L460 820L620 780L780 830L940 790L1020 820L1020 960L180 960Z" fill="url(#sand)"/>
  <g fill="#ffffff" opacity="0.85">
    <circle cx="320" cy="320" r="3"/>
    <circle cx="420" cy="280" r="2"/>
    <circle cx="540" cy="340" r="2.5"/>
    <circle cx="680" cy="290" r="3"/>
    <circle cx="900" cy="320" r="2"/>
    <circle cx="950" cy="380" r="3"/>
  </g>
  <rect x="180" y="240" width="840" height="720" fill="none" stroke="#0a0a0a" stroke-width="6"/>
</svg>
